<mxfile host="app.diagrams.net" agent="Mozilla/5.0 (Windows NT 10.0; Win64; x64) AppleWebKit/537.36 (KHTML, like Gecko) Chrome/128.0.0.0 Safari/537.36 OPR/114.0.0.0" version="24.7.17">
  <diagram id="R2lEEEUBdFMjLlhIrx00" name="Page-1">
    <mxGraphModel dx="996" dy="522" grid="1" gridSize="10" guides="1" tooltips="1" connect="1" arrows="1" fold="1" page="1" pageScale="1" pageWidth="850" pageHeight="1100" math="0" shadow="0" extFonts="Permanent Marker^https://fonts.googleapis.com/css?family=Permanent+Marker">
      <root>
        <mxCell id="0" />
        <mxCell id="1" parent="0" />
        <mxCell id="2lJx8aIQyMY3eyVQErQr-1" value="Drink&#xa;- Drink_ID (PK)&#xa;- Name&#xa;- Type" style="shape=rectangle;whiteSpace=wrap;html=1;" vertex="1" parent="1">
          <mxGeometry x="100" y="100" width="120" height="60" as="geometry" />
        </mxCell>
        <mxCell id="2lJx8aIQyMY3eyVQErQr-2" value="Ingredient&#xa;- Ingredient_ID (PK)&#xa;- Name&#xa;- Unit" style="shape=rectangle;whiteSpace=wrap;html=1;" vertex="1" parent="1">
          <mxGeometry x="300" y="100" width="140" height="60" as="geometry" />
        </mxCell>
        <mxCell id="2lJx8aIQyMY3eyVQErQr-3" value="Supplier&#xa;- Supplier_ID (PK)&#xa;- Name&#xa;- Contact" style="shape=rectangle;whiteSpace=wrap;html=1;" vertex="1" parent="1">
          <mxGeometry x="500" y="100" width="140" height="60" as="geometry" />
        </mxCell>
        <mxCell id="2lJx8aIQyMY3eyVQErQr-4" value="Glass&#xa;- Glass_ID (PK)&#xa;- Type&#xa;- Volume" style="shape=rectangle;whiteSpace=wrap;html=1;" vertex="1" parent="1">
          <mxGeometry x="80" y="340" width="120" height="60" as="geometry" />
        </mxCell>
        <mxCell id="2lJx8aIQyMY3eyVQErQr-5" value="Recipe&#xa;- Recipe_ID (PK)" style="shape=rectangle;whiteSpace=wrap;html=1;" vertex="1" parent="1">
          <mxGeometry x="300" y="300" width="100" height="40" as="geometry" />
        </mxCell>
        <mxCell id="2lJx8aIQyMY3eyVQErQr-6" value="GetrÃ¤nk" style="shape=rectangle;whiteSpace=wrap;html=1;direction=south;align=center;" vertex="1" parent="1">
          <mxGeometry x="440" y="350" width="80" height="140" as="geometry" />
        </mxCell>
        <mxCell id="2lJx8aIQyMY3eyVQErQr-8" value="Order Detail&#xa;- OrderDetail_ID (PK)" style="shape=rectangle;whiteSpace=wrap;html=1;" vertex="1" parent="1">
          <mxGeometry x="300" y="500" width="120" height="40" as="geometry" />
        </mxCell>
        <mxCell id="2lJx8aIQyMY3eyVQErQr-9" value="" edge="1" parent="1" source="2lJx8aIQyMY3eyVQErQr-1" target="2lJx8aIQyMY3eyVQErQr-4">
          <mxGeometry relative="1" as="geometry" />
        </mxCell>
        <mxCell id="2lJx8aIQyMY3eyVQErQr-10" value="" edge="1" parent="1" source="2lJx8aIQyMY3eyVQErQr-1" target="2lJx8aIQyMY3eyVQErQr-5">
          <mxGeometry relative="1" as="geometry" />
        </mxCell>
        <mxCell id="2lJx8aIQyMY3eyVQErQr-11" value="" edge="1" parent="1" source="2lJx8aIQyMY3eyVQErQr-5" target="2lJx8aIQyMY3eyVQErQr-2">
          <mxGeometry relative="1" as="geometry" />
        </mxCell>
        <mxCell id="2lJx8aIQyMY3eyVQErQr-12" value="" edge="1" parent="1" source="2lJx8aIQyMY3eyVQErQr-2" target="2lJx8aIQyMY3eyVQErQr-3">
          <mxGeometry relative="1" as="geometry" />
        </mxCell>
        <mxCell id="2lJx8aIQyMY3eyVQErQr-13" value="" style="entryX=1;entryY=0.5;entryDx=0;entryDy=0;" edge="1" parent="1" source="2lJx8aIQyMY3eyVQErQr-7" target="2lJx8aIQyMY3eyVQErQr-17">
          <mxGeometry relative="1" as="geometry" />
        </mxCell>
        <mxCell id="2lJx8aIQyMY3eyVQErQr-14" value="" edge="1" parent="1" source="2lJx8aIQyMY3eyVQErQr-6" target="2lJx8aIQyMY3eyVQErQr-8">
          <mxGeometry relative="1" as="geometry" />
        </mxCell>
        <mxCell id="2lJx8aIQyMY3eyVQErQr-15" value="" edge="1" parent="1" source="2lJx8aIQyMY3eyVQErQr-8" target="2lJx8aIQyMY3eyVQErQr-1">
          <mxGeometry relative="1" as="geometry" />
        </mxCell>
        <mxCell id="2lJx8aIQyMY3eyVQErQr-7" value="Mitarbeiter" style="shape=rectangle;whiteSpace=wrap;html=1;" vertex="1" parent="1">
          <mxGeometry x="640" y="280" width="140" height="60" as="geometry" />
        </mxCell>
        <mxCell id="2lJx8aIQyMY3eyVQErQr-18" style="edgeStyle=orthogonalEdgeStyle;rounded=0;orthogonalLoop=1;jettySize=auto;html=1;exitX=0;exitY=0.5;exitDx=0;exitDy=0;entryX=0.5;entryY=0;entryDx=0;entryDy=0;" edge="1" parent="1" source="2lJx8aIQyMY3eyVQErQr-17" target="2lJx8aIQyMY3eyVQErQr-6">
          <mxGeometry relative="1" as="geometry" />
        </mxCell>
        <mxCell id="2lJx8aIQyMY3eyVQErQr-17" value="mischt" style="rhombus;whiteSpace=wrap;html=1;" vertex="1" parent="1">
          <mxGeometry x="570" y="420" width="80" height="40" as="geometry" />
        </mxCell>
      </root>
    </mxGraphModel>
  </diagram>
</mxfile>
